<svg width="24" height="24" viewBox="0 0 24 24" fill="none" xmlns="http://www.w3.org/2000/svg">
<path fill-rule="evenodd" clip-rule="evenodd" d="M7.4284 5.14286C7.27684 5.14286 7.1315 5.20306 7.02434 5.31022C6.91717 5.41739 6.85697 5.56273 6.85697 5.71429V8C6.85697 8.15155 6.91717 8.2969 7.02434 8.40406C7.1315 8.51122 7.27684 8.57143 7.4284 8.57143C7.57995 8.57143 7.72529 8.51122 7.83246 8.40406C7.93962 8.2969 7.99983 8.15155 7.99983 8V5.71429C7.99983 5.56273 7.93962 5.41739 7.83246 5.31022C7.72529 5.20306 7.57995 5.14286 7.4284 5.14286ZM7.4284 4C7.88305 4 8.31909 4.18061 8.64058 4.5021C8.96207 4.82359 9.14268 5.25963 9.14268 5.71429V8C9.14268 8.45466 8.96207 8.89069 8.64058 9.21218C8.31909 9.53367 7.88305 9.71429 7.4284 9.71429C6.97374 9.71429 6.5377 9.53367 6.21621 9.21218C5.89472 8.89069 5.71411 8.45466 5.71411 8V5.71429C5.71411 5.25963 5.89472 4.82359 6.21621 4.5021C6.5377 4.18061 6.97374 4 7.4284 4Z" fill="#303030"/>
<path fill-rule="evenodd" clip-rule="evenodd" d="M8 6.85707C8 6.54148 8.25584 6.28564 8.57143 6.28564H21.1429C21.4584 6.28564 21.7143 6.54148 21.7143 6.85707C21.7143 7.17266 21.4584 7.4285 21.1429 7.4285H8.57143C8.25584 7.4285 8 7.17266 8 6.85707Z" fill="#303030"/>
<path fill-rule="evenodd" clip-rule="evenodd" d="M2.28564 6.85707C2.28564 6.54148 2.54148 6.28564 2.85707 6.28564H6.28564C6.60124 6.28564 6.85707 6.54148 6.85707 6.85707C6.85707 7.17266 6.60124 7.4285 6.28564 7.4285H2.85707C2.54148 7.4285 2.28564 7.17266 2.28564 6.85707Z" fill="#303030"/>
<path fill-rule="evenodd" clip-rule="evenodd" d="M7.4284 16.5716C7.27684 16.5716 7.1315 16.6318 7.02434 16.7389C6.91717 16.8461 6.85697 16.9914 6.85697 17.143V19.4287C6.85697 19.5803 6.91717 19.7256 7.02434 19.8328C7.1315 19.9399 7.27684 20.0001 7.4284 20.0001C7.57995 20.0001 7.72529 19.9399 7.83246 19.8328C7.93962 19.7256 7.99983 19.5803 7.99983 19.4287V17.143C7.99983 16.9914 7.93962 16.8461 7.83246 16.7389C7.72529 16.6318 7.57995 16.5716 7.4284 16.5716ZM6.21621 15.9308C6.5377 15.6093 6.97374 15.4287 7.4284 15.4287C7.88305 15.4287 8.31909 15.6093 8.64058 15.9308C8.96207 16.2523 9.14268 16.6883 9.14268 17.143V19.4287C9.14268 19.8834 8.96207 20.3194 8.64058 20.6409C8.31909 20.9624 7.88305 21.143 7.4284 21.143C6.97374 21.143 6.53771 20.9624 6.21621 20.6409C5.89472 20.3194 5.71411 19.8834 5.71411 19.4287V17.143C5.71411 16.6883 5.89472 16.2523 6.21621 15.9308Z" fill="#303030"/>
<path fill-rule="evenodd" clip-rule="evenodd" d="M8 18.2858C8 17.9702 8.25584 17.7144 8.57143 17.7144H21.1429C21.4584 17.7144 21.7143 17.9702 21.7143 18.2858C21.7143 18.6014 21.4584 18.8572 21.1429 18.8572H8.57143C8.25584 18.8572 8 18.6014 8 18.2858Z" fill="#303030"/>
<path fill-rule="evenodd" clip-rule="evenodd" d="M2.28564 18.2858C2.28564 17.9702 2.54148 17.7144 2.85707 17.7144H6.28564C6.60124 17.7144 6.85707 17.9702 6.85707 18.2858C6.85707 18.6014 6.60124 18.8572 6.28564 18.8572H2.85707C2.54148 18.8572 2.28564 18.6014 2.28564 18.2858Z" fill="#303030"/>
<path fill-rule="evenodd" clip-rule="evenodd" d="M16.5715 10.8572C16.4199 10.8572 16.2746 10.9174 16.1674 11.0246C16.0602 11.1317 16 11.2771 16 11.4286V13.7144C16 13.8659 16.0602 14.0113 16.1674 14.1184C16.2746 14.2256 16.4199 14.2858 16.5715 14.2858C16.723 14.2858 16.8684 14.2256 16.9755 14.1184C17.0827 14.0113 17.1429 13.8659 17.1429 13.7144V11.4286C17.1429 11.2771 17.0827 11.1317 16.9755 11.0246C16.8684 10.9174 16.723 10.8572 16.5715 10.8572ZM16.5715 9.71436C17.0261 9.71436 17.4622 9.89497 17.7836 10.2165C18.1051 10.5379 18.2857 10.974 18.2857 11.4286V13.7144C18.2857 14.169 18.1051 14.605 17.7836 14.9265C17.4622 15.248 17.0261 15.4286 16.5715 15.4286C16.1168 15.4286 15.6808 15.248 15.3593 14.9265C15.0378 14.605 14.8572 14.169 14.8572 13.7144V11.4286C14.8572 10.974 15.0378 10.5379 15.3593 10.2165C15.6808 9.89497 16.1168 9.71436 16.5715 9.71436Z" fill="#303030"/>
<path fill-rule="evenodd" clip-rule="evenodd" d="M2.28564 12.5714C2.28564 12.2558 2.54148 12 2.85707 12H15.4285C15.7441 12 15.9999 12.2558 15.9999 12.5714C15.9999 12.887 15.7441 13.1429 15.4285 13.1429H2.85707C2.54148 13.1429 2.28564 12.887 2.28564 12.5714Z" fill="#303030"/>
<path fill-rule="evenodd" clip-rule="evenodd" d="M17.1428 12.5714C17.1428 12.2558 17.3987 12 17.7143 12H21.1428C21.4584 12 21.7143 12.2558 21.7143 12.5714C21.7143 12.887 21.4584 13.1429 21.1428 13.1429H17.7143C17.3987 13.1429 17.1428 12.887 17.1428 12.5714Z" fill="#303030"/>
</svg>
