<svg width="53" height="57" viewBox="0 0 53 57" fill="none" xmlns="http://www.w3.org/2000/svg">
<path fill-rule="evenodd" clip-rule="evenodd" d="M36.3693 19.4904C33.9261 24.5722 28.7297 28.08 22.7141 28.08C14.351 28.08 7.57132 21.3004 7.57132 12.9373C7.57132 7.45807 10.4814 2.65854 14.8404 -8.14426e-06C6.3926 1.58395 0 8.99844 0 17.906C0 27.9679 8.15675 36.1246 18.2186 36.1246C27.7467 36.1246 35.5664 28.8104 36.3693 19.4904Z" fill="white"/>
<path fill-rule="evenodd" clip-rule="evenodd" d="M43.771 42.0102C39.366 45.53 33.1626 46.4378 27.7419 43.8296C20.2058 40.2034 17.0362 31.1546 20.6623 23.6185C23.0381 18.6812 27.7414 15.618 32.822 15.1124C24.5228 12.8768 15.5475 16.7863 11.6853 24.813C7.32258 33.8799 11.1361 44.7667 20.2029 49.1294C28.7887 53.2606 39.0064 50.0603 43.771 42.0102Z" fill="white"/>
</svg>
