<svg width="25" height="24" viewBox="0 0 25 24" fill="none" xmlns="http://www.w3.org/2000/svg">
<path d="M12.5 22.1904C9.76739 22.1904 7.14667 21.1048 5.2144 19.1726C3.28213 17.2403 2.19659 14.6196 2.19659 11.8869C2.19659 9.15429 3.28213 6.53357 5.2144 4.6013C7.14667 2.66903 9.76739 1.58349 12.5 1.58349C15.2327 1.58349 17.8534 2.66903 19.7857 4.6013C21.7179 6.53357 22.8035 9.15429 22.8035 11.8869C22.8035 14.6196 21.7179 17.2403 19.7857 19.1726C17.8534 21.1048 15.2327 22.1904 12.5 22.1904ZM12.5 23.6623C15.623 23.6623 18.6182 22.4217 20.8265 20.2134C23.0348 18.0051 24.2754 15.0099 24.2754 11.8869C24.2754 8.76391 23.0348 5.7688 20.8265 3.56049C18.6182 1.35219 15.623 0.111572 12.5 0.111572C9.37701 0.111572 6.3819 1.35219 4.17359 3.56049C1.96529 5.7688 0.72467 8.76391 0.72467 11.8869C0.72467 15.0099 1.96529 18.0051 4.17359 20.2134C6.3819 22.4217 9.37701 23.6623 12.5 23.6623V23.6623Z" fill="#1262AF"/>
<path d="M9.87143 6.88667C10.0103 6.81516 10.1662 6.78336 10.3219 6.79474C10.4777 6.80612 10.6273 6.86026 10.7543 6.95118L16.6967 11.1957C16.8067 11.2743 16.8964 11.3779 16.9583 11.4981C17.0202 11.6183 17.0525 11.7516 17.0525 11.8867C17.0525 12.0219 17.0202 12.1552 16.9583 12.2754C16.8964 12.3956 16.8067 12.4992 16.6967 12.5778L10.7543 16.8223C10.6274 16.9132 10.4778 16.9673 10.3221 16.9786C10.1664 16.99 10.0106 16.9583 9.87183 16.8868C9.73302 16.8154 9.6166 16.7071 9.53535 16.5738C9.45411 16.4405 9.41119 16.2874 9.41132 16.1313V7.6422C9.41115 7.48614 9.45401 7.33305 9.53518 7.19976C9.61635 7.06648 9.7327 6.95814 9.87143 6.88667V6.88667Z" fill="#1262AF"/>
</svg>
