<svg width="25" height="24" viewBox="0 0 25 24" fill="none" xmlns="http://www.w3.org/2000/svg">
<path d="M12.5 22.1904C9.76736 22.1904 7.14664 21.1048 5.21437 19.1726C3.2821 17.2403 2.19656 14.6196 2.19656 11.8869C2.19656 9.15429 3.2821 6.53357 5.21437 4.6013C7.14664 2.66903 9.76736 1.58349 12.5 1.58349C15.2326 1.58349 17.8534 2.66903 19.7856 4.6013C21.7179 6.53357 22.8034 9.15429 22.8034 11.8869C22.8034 14.6196 21.7179 17.2403 19.7856 19.1726C17.8534 21.1048 15.2326 22.1904 12.5 22.1904ZM12.5 23.6623C15.623 23.6623 18.6181 22.4217 20.8264 20.2134C23.0347 18.0051 24.2754 15.0099 24.2754 11.8869C24.2754 8.76391 23.0347 5.7688 20.8264 3.56049C18.6181 1.35219 15.623 0.111572 12.5 0.111572C9.37698 0.111572 6.38187 1.35219 4.17356 3.56049C1.96525 5.7688 0.72464 8.76391 0.72464 11.8869C0.72464 15.0099 1.96525 18.0051 4.17356 20.2134C6.38187 22.4217 9.37698 23.6623 12.5 23.6623V23.6623Z" fill="#1262AF"/>
<path d="M9.87141 6.88667C10.0103 6.81516 10.1662 6.78336 10.3219 6.79474C10.4777 6.80612 10.6273 6.86026 10.7543 6.95118L16.6966 11.1957C16.8067 11.2743 16.8964 11.3779 16.9583 11.4981C17.0202 11.6183 17.0525 11.7516 17.0525 11.8867C17.0525 12.0219 17.0202 12.1552 16.9583 12.2754C16.8964 12.3956 16.8067 12.4992 16.6966 12.5778L10.7543 16.8223C10.6273 16.9132 10.4778 16.9673 10.3221 16.9786C10.1664 16.99 10.0106 16.9583 9.87181 16.8868C9.73301 16.8154 9.61658 16.7071 9.53534 16.5738C9.45409 16.4405 9.41117 16.2874 9.4113 16.1313V7.6422C9.41114 7.48614 9.454 7.33305 9.53517 7.19976C9.61634 7.06648 9.73268 6.95814 9.87141 6.88667V6.88667Z" fill="#1262AF"/>
</svg>
