<svg width="20" height="20" viewBox="0 0 20 20" fill="none" xmlns="http://www.w3.org/2000/svg">
<path d="M10.0001 5.83332C7.70008 5.83332 5.83341 7.69999 5.83341 9.99999C5.83341 12.3 7.70008 14.1667 10.0001 14.1667C12.3001 14.1667 14.1667 12.3 14.1667 9.99999C14.1667 7.69999 12.3001 5.83332 10.0001 5.83332ZM10.0001 1.66666C5.40008 1.66666 1.66675 5.39999 1.66675 9.99999C1.66675 14.6 5.40008 18.3333 10.0001 18.3333C14.6001 18.3333 18.3334 14.6 18.3334 9.99999C18.3334 5.39999 14.6001 1.66666 10.0001 1.66666ZM10.0001 16.6667C6.31675 16.6667 3.33341 13.6833 3.33341 9.99999C3.33341 6.31666 6.31675 3.33332 10.0001 3.33332C13.6834 3.33332 16.6667 6.31666 16.6667 9.99999C16.6667 13.6833 13.6834 16.6667 10.0001 16.6667Z" fill="#1262AE"/>
</svg>
